<svg width="25" height="24" viewBox="0 0 25 24" fill="none" xmlns="http://www.w3.org/2000/svg">
<path fill-rule="evenodd" clip-rule="evenodd" d="M12.389 12.6188H12.421C15.349 12.6188 17.73 10.2378 17.73 7.30976C17.73 4.38176 15.349 1.99976 12.421 1.99976C9.49202 1.99976 7.11002 4.38176 7.11002 7.30676C7.10002 10.2268 9.46702 12.6098 12.389 12.6188ZM8.53802 7.30976C8.53802 5.16876 10.28 3.42776 12.421 3.42776C14.561 3.42776 16.302 5.16876 16.302 7.30976C16.302 9.44976 14.561 11.1918 12.421 11.1918H12.392C10.26 11.1838 8.53102 9.44376 8.53802 7.30976Z" fill="#C4C4C4"/>
<path fill-rule="evenodd" clip-rule="evenodd" d="M4.5 18.1731C4.5 21.8701 10.462 21.8701 12.421 21.8701C15.82 21.8701 20.34 21.4891 20.34 18.1931C20.34 14.4961 14.38 14.4961 12.421 14.4961C9.021 14.4961 4.5 14.8771 4.5 18.1731ZM6 18.1731C6 16.7281 8.16 15.9961 12.421 15.9961C16.681 15.9961 18.84 16.7351 18.84 18.1931C18.84 19.6381 16.681 20.3701 12.421 20.3701C8.16 20.3701 6 19.6311 6 18.1731Z" fill="#C4C4C4"/>
</svg>
