<svg width="25" height="24" viewBox="0 0 25 24" fill="none" xmlns="http://www.w3.org/2000/svg">
<mask id="mask0_1844_2733" style="mask-type:alpha" maskUnits="userSpaceOnUse" x="2" y="1" width="21" height="22">
<path fill-rule="evenodd" clip-rule="evenodd" d="M2.5 1.00024H22.9998V22.5052H2.5V1.00024Z" fill="white"/>
</mask>
<g mask="url(#mask0_1844_2733)">
<path fill-rule="evenodd" clip-rule="evenodd" d="M14.2168 15.2914C15.4208 15.2914 16.4008 16.2644 16.4008 17.4604V20.5364C16.4008 20.7934 16.6068 20.9994 16.8708 21.0054H18.7768C20.2788 21.0054 21.4998 19.7994 21.4998 18.3174V9.59337C21.4928 9.08337 21.2498 8.60337 20.8328 8.28437L14.2398 3.02637C13.3548 2.32537 12.1168 2.32537 11.2288 3.02837L4.68076 8.28237C4.24776 8.61137 4.00476 9.09137 3.99976 9.61037V18.3174C3.99976 19.7994 5.22076 21.0054 6.72276 21.0054H8.64676C8.91776 21.0054 9.13776 20.7904 9.13776 20.5264C9.13776 20.4684 9.14476 20.4104 9.15676 20.3554V17.4604C9.15676 16.2714 10.1308 15.2994 11.3258 15.2914H14.2168ZM18.7768 22.5054H16.8528C15.7508 22.4794 14.9008 21.6144 14.9008 20.5364V17.4604C14.9008 17.0914 14.5938 16.7914 14.2168 16.7914H11.3308C10.9618 16.7934 10.6568 17.0944 10.6568 17.4604V20.5264C10.6568 20.6014 10.6468 20.6734 10.6258 20.7414C10.5178 21.7314 9.67176 22.5054 8.64676 22.5054H6.72276C4.39376 22.5054 2.49976 20.6264 2.49976 18.3174V9.60337C2.50976 8.60937 2.96776 7.69937 3.75876 7.10037L10.2938 1.85537C11.7328 0.715372 13.7378 0.715372 15.1738 1.85337L21.7558 7.10337C22.5288 7.69237 22.9868 8.60037 22.9998 9.58237V18.3174C22.9998 20.6264 21.1058 22.5054 18.7768 22.5054Z" fill="#C4C4C4"/>
</g>
</svg>
